<svg viewBox="0 0 400 400" xmlns="http://www.w3.org/2000/svg">
<defs>
  <filter id="glow">
    <feGaussianBlur stdDeviation="1.5" result="coloredBlur"/>
    <feMerge>
      <feMergeNode in="coloredBlur"/>
      <feMergeNode in="SourceGraphic"/>
    </feMerge>
  </filter>
</defs>
<rect width="100%" height="100%" fill="transparent" />
<path d="M284,27h1v1h-1z M283,28h2v1h-2z M291,51h1v1h-1z M290,52h2v1h-2z M289,53h3v1h-3z M287,54h6v1h-6z M287,55h8v1h-8z M287,56h7v1h-7z M287,57h8v1h-8z M287,58h7v1h-7z M288,59h6v1h-6z M281,60h1v1h-1z M285,60h3v1h-3z M289,60h4v1h-4z M279,61h1v1h-1z M281,61h1v1h-1z M283,61h13v1h-13z M281,62h16v1h-16z M280,63h20v1h-20z M275,64h2v1h-2z M279,64h20v1h-20z M273,65h4v1h-4z M278,65h23v1h-23z M274,66h27v1h-27z M274,67h27v1h-27z M302,67h2v1h-2z M276,68h29v1h-29z M275,69h30v1h-30z M275,70h29v1h-29z M274,71h29v1h-29z M274,72h29v1h-29z M274,73h30v1h-30z M272,74h32v1h-32z M272,75h34v1h-34z M271,76h1v1h-1z M273,76h32v1h-32z M274,77h32v1h-32z M273,78h31v1h-31z M274,79h30v1h-30z M273,80h31v1h-31z M306,80h1v1h-1z M274,81h30v1h-30z M275,82h28v1h-28z M275,83h28v1h-28z M274,84h29v1h-29z M277,85h24v1h-24z M302,85h1v1h-1z M275,86h1v1h-1z M277,86h24v1h-24z M278,87h22v1h-22z M279,88h20v1h-20z M280,89h18v1h-18z M263,90h1v1h-1z M281,90h16v1h-16z M315,90h1v1h-1z M262,91h1v1h-1z M266,91h1v1h-1z M268,91h2v1h-2z M272,91h1v1h-1z M274,91h1v1h-1z M284,91h10v1h-10z M303,91h1v1h-1z M306,91h1v1h-1z M316,91h1v1h-1z M328,91h1v1h-1z M246,92h1v1h-1z M262,92h1v1h-1z M268,92h1v1h-1z M272,92h1v1h-1z M274,92h1v1h-1z M276,92h1v1h-1z M278,92h21v1h-21z M301,92h1v1h-1z M303,92h1v1h-1z M306,92h1v1h-1z M310,92h1v1h-1z M318,92h1v1h-1z M251,93h3v1h-3z M262,93h3v1h-3z M267,93h40v1h-40z M309,93h3v1h-3z M314,93h4v1h-4z M329,93h1v1h-1z M363,93h1v1h-1z M222,94h1v1h-1z M251,94h2v1h-2z M261,94h4v1h-4z M266,94h1v1h-1z M268,94h40v1h-40z M309,94h2v1h-2z M312,94h1v1h-1z M315,94h2v1h-2z M328,94h1v1h-1z M250,95h5v1h-5z M258,95h1v1h-1z M261,95h3v1h-3z M265,95h53v1h-53z M328,95h1v1h-1z M250,96h5v1h-5z M259,96h58v1h-58z M318,96h1v1h-1z M320,96h2v1h-2z M325,96h4v1h-4z M224,97h1v1h-1z M249,97h7v1h-7z M257,97h63v1h-63z M324,97h6v1h-6z M225,98h2v1h-2z M228,98h1v1h-1z M249,98h6v1h-6z M256,98h64v1h-64z M321,98h2v1h-2z M324,98h6v1h-6z M224,99h4v1h-4z M229,99h3v1h-3z M233,99h1v1h-1z M244,99h1v1h-1z M250,99h80v1h-80z M224,100h10v1h-10z M243,100h1v1h-1z M248,100h1v1h-1z M252,100h77v1h-77z M336,100h1v1h-1z M225,101h10v1h-10z M237,101h1v1h-1z M243,101h2v1h-2z M246,101h82v1h-82z M225,102h12v1h-12z M244,102h86v1h-86z M331,102h1v1h-1z M335,102h1v1h-1z M346,102h1v1h-1z M225,103h13v1h-13z M241,103h2v1h-2z M244,103h88v1h-88z M334,103h1v1h-1z M349,103h2v1h-2z M224,104h13v1h-13z M241,104h95v1h-95z M350,104h4v1h-4z M224,105h14v1h-14z M239,105h1v1h-1z M241,105h92v1h-92z M334,105h3v1h-3z M346,105h1v1h-1z M348,105h7v1h-7z M356,105h4v1h-4z M220,106h1v1h-1z M224,106h13v1h-13z M240,106h96v1h-96z M339,106h1v1h-1z M346,106h14v1h-14z M223,107h14v1h-14z M239,107h98v1h-98z M338,107h2v1h-2z M344,107h1v1h-1z M346,107h14v1h-14z M222,108h14v1h-14z M237,108h102v1h-102z M345,108h14v1h-14z M224,109h12v1h-12z M237,109h102v1h-102z M340,109h2v1h-2z M344,109h14v1h-14z M225,110h116v1h-116z M344,110h14v1h-14z M225,111h117v1h-117z M344,111h15v1h-15z M228,112h114v1h-114z M344,112h14v1h-14z M228,113h1v1h-1z M230,113h1v1h-1z M232,113h111v1h-111z M344,113h14v1h-14z M230,114h114v1h-114z M345,114h14v1h-14z M228,115h133v1h-133z M224,116h1v1h-1z M228,116h129v1h-129z M224,117h1v1h-1z M227,117h130v1h-130z M218,118h1v1h-1z M225,118h130v1h-130z M356,118h1v1h-1z M219,119h1v1h-1z M221,119h1v1h-1z M225,119h124v1h-124z M350,119h2v1h-2z M354,119h1v1h-1z M220,120h131v1h-131z M217,121h1v1h-1z M220,121h130v1h-130z M219,122h133v1h-133z M206,123h1v1h-1z M211,123h1v1h-1z M213,123h1v1h-1z M221,123h132v1h-132z M205,124h1v1h-1z M217,124h2v1h-2z M220,124h135v1h-135z M212,125h3v1h-3z M219,125h134v1h-134z M208,126h2v1h-2z M211,126h4v1h-4z M217,126h137v1h-137z M355,126h1v1h-1z M207,127h9v1h-9z M218,127h138v1h-138z M209,128h7v1h-7z M217,128h139v1h-139z M208,129h149v1h-149z M207,130h150v1h-150z M358,130h2v1h-2z M362,130h1v1h-1z M207,131h1v1h-1z M209,131h152v1h-152z M207,132h1v1h-1z M210,132h150v1h-150z M362,132h1v1h-1z M212,133h146v1h-146z M359,133h1v1h-1z M212,134h147v1h-147z M211,135h149v1h-149z M361,135h1v1h-1z M210,136h153v1h-153z M207,137h1v1h-1z M209,137h153v1h-153z M207,138h154v1h-154z M199,139h1v1h-1z M208,139h154v1h-154z M203,140h3v1h-3z M207,140h155v1h-155z M365,140h3v1h-3z M204,141h2v1h-2z M208,141h154v1h-154z M364,141h6v1h-6z M201,142h6v1h-6z M208,142h154v1h-154z M363,142h7v1h-7z M371,142h1v1h-1z M378,142h1v1h-1z M201,143h171v1h-171z M203,144h169v1h-169z M203,145h167v1h-167z M204,146h166v1h-166z M204,147h166v1h-166z M204,148h160v1h-160z M365,148h3v1h-3z M197,149h1v1h-1z M201,149h164v1h-164z M202,150h162v1h-162z M200,151h1v1h-1z M202,151h164v1h-164z M154,152h1v1h-1z M197,152h1v1h-1z M200,152h167v1h-167z M154,153h2v1h-2z M157,153h1v1h-1z M198,153h168v1h-168z M130,154h2v1h-2z M152,154h4v1h-4z M157,154h1v1h-1z M199,154h168v1h-168z M130,155h2v1h-2z M133,155h1v1h-1z M152,155h5v1h-5z M199,155h168v1h-168z M130,156h6v1h-6z M146,156h1v1h-1z M151,156h7v1h-7z M165,156h1v1h-1z M200,156h168v1h-168z M130,157h7v1h-7z M145,157h1v1h-1z M148,157h1v1h-1z M152,157h5v1h-5z M161,157h1v1h-1z M165,157h4v1h-4z M199,157h1v1h-1z M201,157h165v1h-165z M129,158h8v1h-8z M145,158h2v1h-2z M148,158h1v1h-1z M153,158h3v1h-3z M160,158h2v1h-2z M165,158h4v1h-4z M200,158h166v1h-166z M128,159h10v1h-10z M145,159h1v1h-1z M147,159h15v1h-15z M165,159h3v1h-3z M198,159h1v1h-1z M200,159h166v1h-166z M128,160h10v1h-10z M142,160h26v1h-26z M195,160h172v1h-172z M129,161h8v1h-8z M139,161h31v1h-31z M174,161h1v1h-1z M198,161h168v1h-168z M129,162h8v1h-8z M138,162h34v1h-34z M173,162h3v1h-3z M199,162h171v1h-171z M374,162h1v1h-1z M129,163h47v1h-47z M195,163h1v1h-1z M197,163h173v1h-173z M131,164h44v1h-44z M195,164h2v1h-2z M198,164h173v1h-173z M131,165h1v1h-1z M133,165h44v1h-44z M196,165h175v1h-175z M131,166h46v1h-46z M178,166h2v1h-2z M194,166h176v1h-176z M129,167h1v1h-1z M131,167h49v1h-49z M197,167h169v1h-169z M124,168h1v1h-1z M126,168h1v1h-1z M128,168h51v1h-51z M197,168h170v1h-170z M126,169h1v1h-1z M128,169h53v1h-53z M196,169h171v1h-171z M125,170h58v1h-58z M195,170h171v1h-171z M126,171h56v1h-56z M196,171h170v1h-170z M117,172h1v1h-1z M124,172h59v1h-59z M195,172h171v1h-171z M120,173h3v1h-3z M124,173h61v1h-61z M194,173h171v1h-171z M120,174h65v1h-65z M195,174h170v1h-170z M366,174h1v1h-1z M120,175h67v1h-67z M194,175h175v1h-175z M121,176h65v1h-65z M195,176h174v1h-174z M122,177h66v1h-66z M193,177h175v1h-175z M369,177h1v1h-1z M121,178h67v1h-67z M195,178h169v1h-169z M120,179h69v1h-69z M193,179h171v1h-171z M118,180h1v1h-1z M120,180h68v1h-68z M193,180h171v1h-171z M116,181h73v1h-73z M194,181h169v1h-169z M115,182h1v1h-1z M118,182h72v1h-72z M193,182h170v1h-170z M119,183h71v1h-71z M194,183h171v1h-171z M116,184h1v1h-1z M118,184h73v1h-73z M193,184h169v1h-169z M363,184h2v1h-2z M116,185h75v1h-75z M193,185h169v1h-169z M116,186h75v1h-75z M193,186h168v1h-168z M117,187h74v1h-74z M193,187h169v1h-169z M108,188h1v1h-1z M115,188h76v1h-76z M193,188h169v1h-169z M100,189h1v1h-1z M106,189h1v1h-1z M117,189h75v1h-75z M193,189h167v1h-167z M101,190h2v1h-2z M104,190h1v1h-1z M106,190h2v1h-2z M109,190h1v1h-1z M116,190h76v1h-76z M193,190h166v1h-166z M100,191h2v1h-2z M103,191h9v1h-9z M116,191h76v1h-76z M193,191h167v1h-167z M101,192h12v1h-12z M116,192h76v1h-76z M193,192h165v1h-165z M100,193h15v1h-15z M116,193h76v1h-76z M193,193h165v1h-165z M98,194h17v1h-17z M116,194h242v1h-242z M99,195h16v1h-16z M116,195h239v1h-239z M98,196h17v1h-17z M116,196h239v1h-239z M98,197h255v1h-255z M38,198h1v1h-1z M94,198h3v1h-3z M98,198h254v1h-254z M36,199h3v1h-3z M94,199h256v1h-256z M0,200h347v1h-347z M36,201h3v1h-3z M94,201h256v1h-256z M38,202h1v1h-1z M94,202h3v1h-3z M98,202h254v1h-254z M98,203h255v1h-255z M98,204h17v1h-17z M116,204h239v1h-239z M99,205h16v1h-16z M116,205h239v1h-239z M98,206h17v1h-17z M116,206h242v1h-242z M100,207h15v1h-15z M116,207h76v1h-76z M193,207h165v1h-165z M101,208h12v1h-12z M116,208h76v1h-76z M193,208h165v1h-165z M100,209h2v1h-2z M103,209h9v1h-9z M116,209h76v1h-76z M193,209h167v1h-167z M101,210h2v1h-2z M104,210h1v1h-1z M106,210h2v1h-2z M109,210h1v1h-1z M116,210h76v1h-76z M193,210h166v1h-166z M100,211h1v1h-1z M106,211h1v1h-1z M117,211h75v1h-75z M193,211h167v1h-167z M108,212h1v1h-1z M115,212h76v1h-76z M193,212h169v1h-169z M117,213h74v1h-74z M193,213h169v1h-169z M116,214h75v1h-75z M193,214h168v1h-168z M116,215h75v1h-75z M193,215h169v1h-169z M116,216h1v1h-1z M118,216h73v1h-73z M193,216h169v1h-169z M363,216h2v1h-2z M119,217h71v1h-71z M194,217h171v1h-171z M115,218h1v1h-1z M118,218h72v1h-72z M193,218h170v1h-170z M116,219h73v1h-73z M194,219h169v1h-169z M118,220h1v1h-1z M120,220h68v1h-68z M193,220h171v1h-171z M120,221h69v1h-69z M193,221h171v1h-171z M121,222h67v1h-67z M195,222h169v1h-169z M122,223h66v1h-66z M193,223h175v1h-175z M369,223h1v1h-1z M121,224h65v1h-65z M195,224h174v1h-174z M120,225h67v1h-67z M194,225h175v1h-175z M120,226h65v1h-65z M195,226h170v1h-170z M366,226h1v1h-1z M120,227h3v1h-3z M124,227h61v1h-61z M194,227h171v1h-171z M117,228h1v1h-1z M124,228h59v1h-59z M195,228h171v1h-171z M126,229h56v1h-56z M196,229h170v1h-170z M125,230h58v1h-58z M195,230h171v1h-171z M126,231h1v1h-1z M128,231h53v1h-53z M196,231h171v1h-171z M124,232h1v1h-1z M126,232h1v1h-1z M128,232h51v1h-51z M197,232h170v1h-170z M129,233h1v1h-1z M131,233h49v1h-49z M197,233h169v1h-169z M131,234h46v1h-46z M178,234h2v1h-2z M194,234h176v1h-176z M131,235h1v1h-1z M133,235h44v1h-44z M196,235h175v1h-175z M131,236h44v1h-44z M195,236h2v1h-2z M198,236h173v1h-173z M129,237h47v1h-47z M195,237h1v1h-1z M197,237h173v1h-173z M129,238h8v1h-8z M138,238h34v1h-34z M173,238h3v1h-3z M199,238h171v1h-171z M374,238h1v1h-1z M129,239h8v1h-8z M139,239h31v1h-31z M174,239h1v1h-1z M198,239h168v1h-168z M128,240h10v1h-10z M142,240h26v1h-26z M195,240h172v1h-172z M128,241h10v1h-10z M145,241h1v1h-1z M147,241h15v1h-15z M165,241h3v1h-3z M198,241h1v1h-1z M200,241h166v1h-166z M129,242h8v1h-8z M145,242h2v1h-2z M148,242h1v1h-1z M153,242h3v1h-3z M160,242h2v1h-2z M165,242h4v1h-4z M200,242h166v1h-166z M130,243h7v1h-7z M145,243h1v1h-1z M148,243h1v1h-1z M152,243h5v1h-5z M161,243h1v1h-1z M165,243h4v1h-4z M199,243h1v1h-1z M201,243h165v1h-165z M130,244h6v1h-6z M146,244h1v1h-1z M151,244h7v1h-7z M165,244h1v1h-1z M200,244h168v1h-168z M130,245h2v1h-2z M133,245h1v1h-1z M152,245h5v1h-5z M199,245h168v1h-168z M130,246h2v1h-2z M152,246h4v1h-4z M157,246h1v1h-1z M199,246h168v1h-168z M154,247h2v1h-2z M157,247h1v1h-1z M198,247h168v1h-168z M154,248h1v1h-1z M197,248h1v1h-1z M200,248h167v1h-167z M200,249h1v1h-1z M202,249h164v1h-164z M202,250h162v1h-162z M197,251h1v1h-1z M201,251h164v1h-164z M204,252h160v1h-160z M365,252h3v1h-3z M204,253h166v1h-166z M204,254h166v1h-166z M203,255h167v1h-167z M203,256h169v1h-169z M201,257h171v1h-171z M201,258h6v1h-6z M208,258h154v1h-154z M363,258h7v1h-7z M371,258h1v1h-1z M378,258h1v1h-1z M204,259h2v1h-2z M208,259h154v1h-154z M364,259h6v1h-6z M203,260h3v1h-3z M207,260h155v1h-155z M365,260h3v1h-3z M199,261h1v1h-1z M208,261h154v1h-154z M207,262h154v1h-154z M207,263h1v1h-1z M209,263h153v1h-153z M210,264h153v1h-153z M211,265h149v1h-149z M361,265h1v1h-1z M212,266h147v1h-147z M212,267h146v1h-146z M359,267h1v1h-1z M207,268h1v1h-1z M210,268h150v1h-150z M362,268h1v1h-1z M207,269h1v1h-1z M209,269h152v1h-152z M207,270h150v1h-150z M358,270h2v1h-2z M362,270h1v1h-1z M208,271h149v1h-149z M209,272h7v1h-7z M217,272h139v1h-139z M207,273h9v1h-9z M218,273h138v1h-138z M208,274h2v1h-2z M211,274h4v1h-4z M217,274h137v1h-137z M355,274h1v1h-1z M212,275h3v1h-3z M219,275h134v1h-134z M205,276h1v1h-1z M217,276h2v1h-2z M220,276h135v1h-135z M206,277h1v1h-1z M211,277h1v1h-1z M213,277h1v1h-1z M221,277h132v1h-132z M219,278h133v1h-133z M217,279h1v1h-1z M220,279h130v1h-130z M220,280h131v1h-131z M219,281h1v1h-1z M221,281h1v1h-1z M225,281h124v1h-124z M350,281h2v1h-2z M354,281h1v1h-1z M218,282h1v1h-1z M225,282h130v1h-130z M356,282h1v1h-1z M224,283h1v1h-1z M227,283h130v1h-130z M224,284h1v1h-1z M228,284h129v1h-129z M228,285h133v1h-133z M230,286h114v1h-114z M345,286h14v1h-14z M228,287h1v1h-1z M230,287h1v1h-1z M232,287h111v1h-111z M344,287h14v1h-14z M228,288h114v1h-114z M344,288h14v1h-14z M225,289h117v1h-117z M344,289h15v1h-15z M225,290h116v1h-116z M344,290h14v1h-14z M224,291h12v1h-12z M237,291h102v1h-102z M340,291h2v1h-2z M344,291h14v1h-14z M222,292h14v1h-14z M237,292h102v1h-102z M345,292h14v1h-14z M223,293h14v1h-14z M239,293h98v1h-98z M338,293h2v1h-2z M344,293h1v1h-1z M346,293h14v1h-14z M220,294h1v1h-1z M224,294h13v1h-13z M240,294h96v1h-96z M339,294h1v1h-1z M346,294h14v1h-14z M224,295h14v1h-14z M239,295h1v1h-1z M241,295h92v1h-92z M334,295h3v1h-3z M346,295h1v1h-1z M348,295h7v1h-7z M356,295h4v1h-4z M224,296h13v1h-13z M241,296h95v1h-95z M350,296h4v1h-4z M225,297h13v1h-13z M241,297h2v1h-2z M244,297h88v1h-88z M334,297h1v1h-1z M349,297h2v1h-2z M225,298h12v1h-12z M244,298h86v1h-86z M331,298h1v1h-1z M335,298h1v1h-1z M346,298h1v1h-1z M225,299h10v1h-10z M237,299h1v1h-1z M243,299h2v1h-2z M246,299h82v1h-82z M224,300h10v1h-10z M243,300h1v1h-1z M248,300h1v1h-1z M252,300h77v1h-77z M336,300h1v1h-1z M224,301h4v1h-4z M229,301h3v1h-3z M233,301h1v1h-1z M244,301h1v1h-1z M250,301h80v1h-80z M225,302h2v1h-2z M228,302h1v1h-1z M249,302h6v1h-6z M256,302h64v1h-64z M321,302h2v1h-2z M324,302h6v1h-6z M224,303h1v1h-1z M249,303h7v1h-7z M257,303h63v1h-63z M324,303h6v1h-6z M250,304h5v1h-5z M259,304h58v1h-58z M318,304h1v1h-1z M320,304h2v1h-2z M325,304h4v1h-4z M250,305h5v1h-5z M258,305h1v1h-1z M261,305h3v1h-3z M265,305h53v1h-53z M328,305h1v1h-1z M222,306h1v1h-1z M251,306h2v1h-2z M261,306h4v1h-4z M266,306h1v1h-1z M268,306h40v1h-40z M309,306h2v1h-2z M312,306h1v1h-1z M315,306h2v1h-2z M328,306h1v1h-1z M251,307h3v1h-3z M262,307h3v1h-3z M267,307h40v1h-40z M309,307h3v1h-3z M314,307h4v1h-4z M329,307h1v1h-1z M363,307h1v1h-1z M246,308h1v1h-1z M262,308h1v1h-1z M268,308h1v1h-1z M272,308h1v1h-1z M274,308h1v1h-1z M276,308h1v1h-1z M278,308h21v1h-21z M301,308h1v1h-1z M303,308h1v1h-1z M306,308h1v1h-1z M310,308h1v1h-1z M318,308h1v1h-1z M262,309h1v1h-1z M266,309h1v1h-1z M268,309h2v1h-2z M272,309h1v1h-1z M274,309h1v1h-1z M284,309h10v1h-10z M303,309h1v1h-1z M306,309h1v1h-1z M316,309h1v1h-1z M328,309h1v1h-1z M263,310h1v1h-1z M281,310h16v1h-16z M315,310h1v1h-1z M280,311h18v1h-18z M279,312h20v1h-20z M278,313h22v1h-22z M275,314h1v1h-1z M277,314h24v1h-24z M277,315h24v1h-24z M302,315h1v1h-1z M274,316h29v1h-29z M275,317h28v1h-28z M275,318h28v1h-28z M274,319h30v1h-30z M273,320h31v1h-31z M306,320h1v1h-1z M274,321h30v1h-30z M273,322h31v1h-31z M274,323h32v1h-32z M271,324h1v1h-1z M273,324h32v1h-32z M272,325h34v1h-34z M272,326h32v1h-32z M274,327h30v1h-30z M274,328h29v1h-29z M274,329h29v1h-29z M275,330h29v1h-29z M275,331h30v1h-30z M276,332h29v1h-29z M274,333h27v1h-27z M302,333h2v1h-2z M274,334h27v1h-27z M273,335h4v1h-4z M278,335h23v1h-23z M275,336h2v1h-2z M279,336h20v1h-20z M280,337h20v1h-20z M281,338h16v1h-16z M279,339h1v1h-1z M281,339h1v1h-1z M283,339h13v1h-13z M281,340h1v1h-1z M285,340h3v1h-3z M289,340h4v1h-4z M288,341h6v1h-6z M287,342h7v1h-7z M287,343h8v1h-8z M287,344h7v1h-7z M287,345h8v1h-8z M287,346h6v1h-6z M289,347h3v1h-3z M290,348h2v1h-2z M291,349h1v1h-1z M283,372h2v1h-2z M284,373h1v1h-1z " fill="#000" stroke="none" /><path d="M274,14h4v2h-4z M276,16h4v2h-4z M284,16h2v2h-2z M278,18h4v2h-4z M280,20h4v2h-4z M280,22h4v2h-4z M280,24h6v2h-6z M280,26h8v2h-8z M280,28h2v2h-2z M286,28h2v2h-2z M306,28h2v2h-2z M280,30h8v2h-8z M306,30h2v2h-2z M280,32h12v2h-12z M304,32h4v2h-4z M284,34h8v2h-8z M296,34h12v2h-12z M284,36h4v2h-4z M290,36h14v2h-14z M286,38h4v2h-4z M292,38h4v2h-4z M298,38h6v2h-6z M284,40h10v2h-10z M296,40h6v2h-6z M284,42h8v2h-8z M294,42h8v2h-8z M284,44h8v2h-8z M294,44h6v2h-6z M282,46h8v2h-8z M294,46h8v2h-8z M280,48h4v2h-4z M286,48h4v2h-4z M294,48h8v2h-8z M278,50h4v2h-4z M284,50h4v2h-4z M294,50h4v2h-4z M300,50h2v2h-2z M270,52h16v2h-16z M296,52h8v2h-8z M268,54h2v2h-2z M272,54h14v2h-14z M298,54h8v2h-8z M268,56h4v2h-4z M274,56h10v2h-10z M298,56h16v2h-16z M262,58h8v2h-8z M274,58h4v2h-4z M282,58h2v2h-2z M298,58h10v2h-10z M310,58h4v2h-4z M262,60h2v2h-2z M268,60h2v2h-2z M272,60h8v2h-8z M298,60h2v2h-2z M302,60h6v2h-6z M310,60h4v2h-4z M264,62h6v2h-6z M302,62h6v2h-6z M310,62h4v2h-4z M264,64h6v2h-6z M306,64h2v2h-2z M310,64h4v2h-4z M266,66h6v2h-6z M308,66h6v2h-6z M266,68h6v2h-6z M310,68h4v2h-4z M266,70h2v2h-2z M270,70h2v2h-2z M308,70h6v2h-6z M264,72h4v2h-4z M306,72h8v2h-8z M264,74h2v2h-2z M268,74h2v2h-2z M312,74h2v2h-2z M264,76h6v2h-6z M310,76h4v2h-4z M264,78h6v2h-6z M308,78h6v2h-6z M262,80h8v2h-8z M308,80h6v2h-6z M260,82h12v2h-12z M308,82h8v2h-8z M226,84h2v2h-2z M258,84h16v2h-16z M306,84h12v2h-12z M362,84h2v2h-2z M210,86h8v2h-8z M220,86h12v2h-12z M246,86h2v2h-2z M250,86h24v2h-24z M304,86h16v2h-16z M324,86h8v2h-8z M362,86h6v2h-6z M212,88h2v2h-2z M216,88h8v2h-8z M230,88h4v2h-4z M244,88h4v2h-4z M254,88h22v2h-22z M302,88h14v2h-14z M318,88h10v2h-10z M330,88h4v2h-4z M362,88h6v2h-6z M212,90h4v2h-4z M218,90h6v2h-6z M226,90h10v2h-10z M242,90h6v2h-6z M256,90h6v2h-6z M266,90h2v2h-2z M270,90h2v2h-2z M304,90h6v2h-6z M312,90h4v2h-4z M318,90h8v2h-8z M334,90h2v2h-2z M362,90h6v2h-6z M214,92h4v2h-4z M226,92h20v2h-20z M256,92h4v2h-4z M320,92h8v2h-8z M332,92h4v2h-4z M360,92h2v2h-2z M364,92h2v2h-2z M214,94h6v2h-6z M226,94h6v2h-6z M234,94h14v2h-14z M320,94h4v2h-4z M336,94h2v2h-2z M358,94h8v2h-8z M212,96h2v2h-2z M230,96h2v2h-2z M238,96h10v2h-10z M332,96h8v2h-8z M344,96h24v2h-24z M218,98h4v2h-4z M236,98h12v2h-12z M332,98h16v2h-16z M352,98h10v2h-10z M366,98h8v2h-8z M212,100h10v2h-10z M238,100h4v2h-4z M332,100h4v2h-4z M338,100h12v2h-12z M354,100h2v2h-2z M358,100h6v2h-6z M370,100h2v2h-2z M214,102h8v2h-8z M238,102h4v2h-4z M338,102h8v2h-8z M360,102h2v2h-2z M366,102h4v2h-4z M216,104h4v2h-4z M338,104h6v2h-6z M364,104h2v2h-2z M368,104h2v2h-2z M216,106h4v2h-4z M340,106h4v2h-4z M362,106h6v2h-6z M370,106h2v2h-2z M216,108h4v2h-4z M342,108h2v2h-2z M364,108h6v2h-6z M214,110h8v2h-8z M362,110h6v2h-6z M212,112h10v2h-10z M360,112h6v2h-6z M210,114h16v2h-16z M364,114h2v2h-2z M206,116h14v2h-14z M222,116h2v2h-2z M364,116h2v2h-2z M204,118h4v2h-4z M212,118h6v2h-6z M360,118h4v2h-4z M200,120h4v2h-4z M206,120h2v2h-2z M210,120h8v2h-8z M356,120h8v2h-8z M198,122h2v2h-2z M202,122h2v2h-2z M210,122h2v2h-2z M214,122h4v2h-4z M354,122h10v2h-10z M198,124h4v2h-4z M358,124h6v2h-6z M200,126h2v2h-2z M358,126h4v2h-4z M364,126h2v2h-2z M110,128h2v2h-2z M200,128h4v2h-4z M358,128h2v2h-2z M364,128h2v2h-2z M110,130h4v2h-4z M200,130h6v2h-6z M364,130h4v2h-4z M112,132h6v2h-6z M198,132h8v2h-8z M364,132h4v2h-4z M376,132h4v2h-4z M112,134h6v2h-6z M198,134h10v2h-10z M362,134h10v2h-10z M374,134h6v2h-6z M116,136h2v2h-2z M150,136h2v2h-2z M196,136h6v2h-6z M204,136h4v2h-4z M364,136h4v2h-4z M370,136h6v2h-6z M112,138h2v2h-2z M116,138h4v2h-4z M148,138h6v2h-6z M196,138h4v2h-4z M204,138h2v2h-2z M372,138h4v2h-4z M378,138h2v2h-2z M110,140h4v2h-4z M116,140h4v2h-4z M146,140h2v2h-2z M152,140h2v2h-2z M194,140h2v2h-2z M372,140h8v2h-8z M110,142h12v2h-12z M130,142h2v2h-2z M144,142h4v2h-4z M150,142h6v2h-6z M192,142h4v2h-4z M380,142h2v2h-2z M112,144h22v2h-22z M144,144h4v2h-4z M150,144h8v2h-8z M192,144h6v2h-6z M378,144h2v2h-2z M114,146h10v2h-10z M126,146h12v2h-12z M140,146h8v2h-8z M150,146h2v2h-2z M154,146h2v2h-2z M158,146h8v2h-8z M168,146h2v2h-2z M190,146h12v2h-12z M372,146h8v2h-8z M114,148h8v2h-8z M126,148h26v2h-26z M158,148h6v2h-6z M168,148h4v2h-4z M188,148h10v2h-10z M200,148h2v2h-2z M372,148h4v2h-4z M116,150h8v2h-8z M132,150h20v2h-20z M158,150h6v2h-6z M166,150h8v2h-8z M186,150h12v2h-12z M366,150h8v2h-8z M116,152h8v2h-8z M126,152h2v2h-2z M138,152h10v2h-10z M160,152h4v2h-4z M168,152h26v2h-26z M368,152h6v2h-6z M118,154h10v2h-10z M138,154h4v2h-4z M144,154h4v2h-4z M160,154h6v2h-6z M170,154h26v2h-26z M370,154h4v2h-4z M118,156h10v2h-10z M140,156h4v2h-4z M170,156h4v2h-4z M176,156h22v2h-22z M370,156h4v2h-4z M118,158h8v2h-8z M176,158h20v2h-20z M368,158h10v2h-10z M118,160h4v2h-4z M178,160h16v2h-16z M372,160h6v2h-6z M116,162h10v2h-10z M182,162h14v2h-14z M372,162h2v2h-2z M376,162h2v2h-2z M112,164h14v2h-14z M182,164h12v2h-12z M374,164h4v2h-4z M110,166h18v2h-18z M184,166h10v2h-10z M110,168h14v2h-14z M184,168h10v2h-10z M368,168h8v2h-8z M108,170h4v2h-4z M114,170h2v2h-2z M118,170h2v2h-2z M186,170h8v2h-8z M368,170h4v2h-4z M108,172h8v2h-8z M188,172h6v2h-6z M368,172h4v2h-4z M88,174h4v2h-4z M108,174h10v2h-10z M188,174h4v2h-4z M370,174h4v2h-4z M92,176h4v2h-4z M106,176h12v2h-12z M372,176h2v2h-2z M90,178h10v2h-10z M104,178h12v2h-12z M370,178h2v2h-2z M90,180h2v2h-2z M94,180h20v2h-20z M366,180h4v2h-4z M90,182h4v2h-4z M96,182h8v2h-8z M106,182h10v2h-10z M366,182h4v2h-4z M90,184h6v2h-6z M98,184h6v2h-6z M106,184h10v2h-10z M90,186h6v2h-6z M98,186h2v2h-2z M102,186h2v2h-2z M106,186h8v2h-8z M364,186h4v2h-4z M90,188h6v2h-6z M364,188h2v2h-2z M88,190h10v2h-10z M360,190h2v2h-2z M36,192h2v2h-2z M78,192h18v2h-18z M362,192h2v2h-2z M36,194h2v2h-2z M76,194h20v2h-20z M358,194h4v2h-4z M34,196h8v2h-8z M56,196h4v2h-4z M76,196h4v2h-4z M82,196h10v2h-10z M356,196h4v2h-4z M32,198h4v2h-4z M40,198h4v2h-4z M48,198h32v2h-32z M82,198h10v2h-10z M354,198h6v2h-6z M350,200h10v2h-10z M32,202h4v2h-4z M40,202h4v2h-4z M48,202h32v2h-32z M82,202h10v2h-10z M354,202h6v2h-6z M34,204h8v2h-8z M56,204h4v2h-4z M76,204h4v2h-4z M82,204h10v2h-10z M356,204h4v2h-4z M36,206h2v2h-2z M76,206h20v2h-20z M358,206h4v2h-4z M36,208h2v2h-2z M78,208h18v2h-18z M362,208h2v2h-2z M88,210h10v2h-10z M360,210h2v2h-2z M90,212h6v2h-6z M364,212h2v2h-2z M90,214h6v2h-6z M98,214h2v2h-2z M102,214h2v2h-2z M106,214h8v2h-8z M364,214h4v2h-4z M90,216h6v2h-6z M98,216h6v2h-6z M106,216h10v2h-10z M90,218h4v2h-4z M96,218h8v2h-8z M106,218h10v2h-10z M366,218h4v2h-4z M90,220h2v2h-2z M94,220h20v2h-20z M366,220h4v2h-4z M90,222h10v2h-10z M104,222h12v2h-12z M370,222h2v2h-2z M92,224h4v2h-4z M106,224h12v2h-12z M372,224h2v2h-2z M88,226h4v2h-4z M108,226h10v2h-10z M188,226h4v2h-4z M370,226h4v2h-4z M108,228h8v2h-8z M188,228h6v2h-6z M368,228h4v2h-4z M108,230h4v2h-4z M114,230h2v2h-2z M118,230h2v2h-2z M186,230h8v2h-8z M368,230h4v2h-4z M110,232h14v2h-14z M184,232h10v2h-10z M368,232h8v2h-8z M110,234h18v2h-18z M184,234h10v2h-10z M112,236h14v2h-14z M182,236h12v2h-12z M374,236h4v2h-4z M116,238h10v2h-10z M182,238h14v2h-14z M372,238h2v2h-2z M376,238h2v2h-2z M118,240h4v2h-4z M178,240h16v2h-16z M372,240h6v2h-6z M118,242h8v2h-8z M176,242h20v2h-20z M368,242h10v2h-10z M118,244h10v2h-10z M140,244h4v2h-4z M170,244h4v2h-4z M176,244h22v2h-22z M370,244h4v2h-4z M118,246h10v2h-10z M138,246h4v2h-4z M144,246h4v2h-4z M160,246h6v2h-6z M170,246h26v2h-26z M370,246h4v2h-4z M116,248h8v2h-8z M126,248h2v2h-2z M138,248h10v2h-10z M160,248h4v2h-4z M168,248h26v2h-26z M368,248h6v2h-6z M116,250h8v2h-8z M132,250h20v2h-20z M158,250h6v2h-6z M166,250h8v2h-8z M186,250h12v2h-12z M366,250h8v2h-8z M114,252h8v2h-8z M126,252h26v2h-26z M158,252h6v2h-6z M168,252h4v2h-4z M188,252h10v2h-10z M200,252h2v2h-2z M372,252h4v2h-4z M114,254h10v2h-10z M126,254h12v2h-12z M140,254h8v2h-8z M150,254h2v2h-2z M154,254h2v2h-2z M158,254h8v2h-8z M168,254h2v2h-2z M190,254h12v2h-12z M372,254h8v2h-8z M112,256h22v2h-22z M144,256h4v2h-4z M150,256h8v2h-8z M192,256h6v2h-6z M378,256h2v2h-2z M110,258h12v2h-12z M130,258h2v2h-2z M144,258h4v2h-4z M150,258h6v2h-6z M192,258h4v2h-4z M380,258h2v2h-2z M110,260h4v2h-4z M116,260h4v2h-4z M146,260h2v2h-2z M152,260h2v2h-2z M194,260h2v2h-2z M372,260h8v2h-8z M112,262h2v2h-2z M116,262h4v2h-4z M148,262h6v2h-6z M196,262h4v2h-4z M204,262h2v2h-2z M372,262h4v2h-4z M378,262h2v2h-2z M116,264h2v2h-2z M150,264h2v2h-2z M196,264h6v2h-6z M204,264h4v2h-4z M364,264h4v2h-4z M370,264h6v2h-6z M112,266h6v2h-6z M198,266h10v2h-10z M362,266h10v2h-10z M374,266h6v2h-6z M112,268h6v2h-6z M198,268h8v2h-8z M364,268h4v2h-4z M376,268h4v2h-4z M110,270h4v2h-4z M200,270h6v2h-6z M364,270h4v2h-4z M110,272h2v2h-2z M200,272h4v2h-4z M358,272h2v2h-2z M364,272h2v2h-2z M200,274h2v2h-2z M358,274h4v2h-4z M364,274h2v2h-2z M198,276h4v2h-4z M358,276h6v2h-6z M198,278h2v2h-2z M202,278h2v2h-2z M210,278h2v2h-2z M214,278h4v2h-4z M354,278h10v2h-10z M200,280h4v2h-4z M206,280h2v2h-2z M210,280h8v2h-8z M356,280h8v2h-8z M204,282h4v2h-4z M212,282h6v2h-6z M360,282h4v2h-4z M206,284h14v2h-14z M222,284h2v2h-2z M364,284h2v2h-2z M210,286h16v2h-16z M364,286h2v2h-2z M212,288h10v2h-10z M360,288h6v2h-6z M214,290h8v2h-8z M362,290h6v2h-6z M216,292h4v2h-4z M342,292h2v2h-2z M364,292h6v2h-6z M216,294h4v2h-4z M340,294h4v2h-4z M362,294h6v2h-6z M370,294h2v2h-2z M216,296h4v2h-4z M338,296h6v2h-6z M364,296h2v2h-2z M368,296h2v2h-2z M214,298h8v2h-8z M238,298h4v2h-4z M338,298h8v2h-8z M360,298h2v2h-2z M366,298h4v2h-4z M212,300h10v2h-10z M238,300h4v2h-4z M332,300h4v2h-4z M338,300h12v2h-12z M354,300h2v2h-2z M358,300h6v2h-6z M370,300h2v2h-2z M218,302h4v2h-4z M236,302h12v2h-12z M332,302h16v2h-16z M352,302h10v2h-10z M366,302h8v2h-8z M212,304h2v2h-2z M230,304h2v2h-2z M238,304h10v2h-10z M332,304h8v2h-8z M344,304h24v2h-24z M214,306h6v2h-6z M226,306h6v2h-6z M234,306h14v2h-14z M320,306h4v2h-4z M336,306h2v2h-2z M358,306h8v2h-8z M214,308h4v2h-4z M226,308h20v2h-20z M256,308h4v2h-4z M320,308h8v2h-8z M332,308h4v2h-4z M360,308h2v2h-2z M364,308h2v2h-2z M212,310h4v2h-4z M218,310h6v2h-6z M226,310h10v2h-10z M242,310h6v2h-6z M256,310h6v2h-6z M266,310h2v2h-2z M270,310h2v2h-2z M304,310h6v2h-6z M312,310h4v2h-4z M318,310h8v2h-8z M334,310h2v2h-2z M362,310h6v2h-6z M212,312h2v2h-2z M216,312h8v2h-8z M230,312h4v2h-4z M244,312h4v2h-4z M254,312h22v2h-22z M302,312h14v2h-14z M318,312h10v2h-10z M330,312h4v2h-4z M362,312h6v2h-6z M210,314h8v2h-8z M220,314h12v2h-12z M246,314h2v2h-2z M250,314h24v2h-24z M304,314h16v2h-16z M324,314h8v2h-8z M362,314h6v2h-6z M226,316h2v2h-2z M258,316h16v2h-16z M306,316h12v2h-12z M362,316h2v2h-2z M260,318h12v2h-12z M308,318h8v2h-8z M262,320h8v2h-8z M308,320h6v2h-6z M264,322h6v2h-6z M308,322h6v2h-6z M264,324h6v2h-6z M310,324h4v2h-4z M264,326h2v2h-2z M268,326h2v2h-2z M312,326h2v2h-2z M264,328h4v2h-4z M306,328h8v2h-8z M266,330h2v2h-2z M270,330h2v2h-2z M308,330h6v2h-6z M266,332h6v2h-6z M310,332h4v2h-4z M266,334h6v2h-6z M308,334h6v2h-6z M264,336h6v2h-6z M306,336h2v2h-2z M310,336h4v2h-4z M264,338h6v2h-6z M302,338h6v2h-6z M310,338h4v2h-4z M262,340h2v2h-2z M268,340h2v2h-2z M272,340h8v2h-8z M298,340h2v2h-2z M302,340h6v2h-6z M310,340h4v2h-4z M262,342h8v2h-8z M274,342h4v2h-4z M282,342h2v2h-2z M298,342h10v2h-10z M310,342h4v2h-4z M268,344h4v2h-4z M274,344h10v2h-10z M298,344h16v2h-16z M268,346h2v2h-2z M272,346h14v2h-14z M298,346h8v2h-8z M270,348h16v2h-16z M296,348h8v2h-8z M278,350h4v2h-4z M284,350h4v2h-4z M294,350h4v2h-4z M300,350h2v2h-2z M280,352h4v2h-4z M286,352h4v2h-4z M294,352h8v2h-8z M282,354h8v2h-8z M294,354h8v2h-8z M284,356h8v2h-8z M294,356h6v2h-6z M284,358h8v2h-8z M294,358h8v2h-8z M284,360h10v2h-10z M296,360h6v2h-6z M286,362h4v2h-4z M292,362h4v2h-4z M298,362h6v2h-6z M284,364h4v2h-4z M290,364h14v2h-14z M284,366h8v2h-8z M296,366h12v2h-12z M280,368h12v2h-12z M304,368h4v2h-4z M280,370h8v2h-8z M306,370h2v2h-2z M280,372h2v2h-2z M286,372h2v2h-2z M306,372h2v2h-2z M280,374h8v2h-8z M280,376h6v2h-6z M280,378h4v2h-4z M280,380h4v2h-4z M278,382h4v2h-4z M276,384h4v2h-4z M284,384h2v2h-2z M274,386h4v2h-4z " fill="#ff00ff" fill-opacity="0.6" stroke="none" filter="url(#glow)" /><path d="M282,18h2v2h-2z M282,28h2v2h-2z M288,30h2v2h-2z M288,36h2v2h-2z M304,36h2v2h-2z M290,38h2v2h-2z M296,38h2v2h-2z M294,40h2v2h-2z M292,44h2v2h-2z M290,46h4v2h-4z M284,48h2v2h-2z M292,48h2v2h-2z M282,50h2v2h-2z M288,50h6v2h-6z M294,52h2v2h-2z M270,54h2v2h-2z M286,54h2v2h-2z M296,54h2v2h-2z M272,56h2v2h-2z M284,56h2v2h-2z M296,56h2v2h-2z M270,58h4v2h-4z M280,58h2v2h-2z M284,58h4v2h-4z M296,58h2v2h-2z M308,58h2v2h-2z M264,60h4v2h-4z M282,60h4v2h-4z M294,60h4v2h-4z M300,60h2v2h-2z M270,62h2v2h-2z M274,62h6v2h-6z M298,62h4v2h-4z M308,62h2v2h-2z M270,64h2v2h-2z M300,64h6v2h-6z M272,66h2v2h-2z M304,66h4v2h-4z M272,68h2v2h-2z M306,68h4v2h-4z M272,70h4v2h-4z M306,70h2v2h-2z M270,72h4v2h-4z M304,72h2v2h-2z M266,74h2v2h-2z M304,74h8v2h-8z M270,76h2v2h-2z M306,76h4v2h-4z M272,78h2v2h-2z M270,80h2v2h-2z M304,80h2v2h-2z M272,82h2v2h-2z M306,82h2v2h-2z M228,84h2v2h-2z M304,84h2v2h-2z M248,86h2v2h-2z M274,86h2v2h-2z M214,88h2v2h-2z M224,88h6v2h-6z M250,88h2v2h-2z M276,88h2v2h-2z M316,88h2v2h-2z M328,88h2v2h-2z M216,90h2v2h-2z M224,90h2v2h-2z M248,90h2v2h-2z M252,90h2v2h-2z M264,90h2v2h-2z M272,90h10v2h-10z M298,90h6v2h-6z M310,90h2v2h-2z M316,90h2v2h-2z M328,90h2v2h-2z M218,92h2v2h-2z M222,92h4v2h-4z M248,92h4v2h-4z M254,92h2v2h-2z M264,92h4v2h-4z M270,92h2v2h-2z M302,92h4v2h-4z M308,92h2v2h-2z M312,92h4v2h-4z M328,92h2v2h-2z M362,92h2v2h-2z M224,94h2v2h-2z M232,94h2v2h-2z M248,94h2v2h-2z M256,94h4v2h-4z M326,94h2v2h-2z M330,94h2v2h-2z M334,94h2v2h-2z M214,96h8v2h-8z M224,96h4v2h-4z M234,96h4v2h-4z M256,96h2v2h-2z M322,96h2v2h-2z M330,96h2v2h-2z M212,98h6v2h-6z M222,98h2v2h-2z M350,98h2v2h-2z M362,98h4v2h-4z M242,100h2v2h-2z M246,100h2v2h-2z M250,100h2v2h-2z M330,100h2v2h-2z M356,100h2v2h-2z M364,100h6v2h-6z M222,102h4v2h-4z M242,102h2v2h-2z M330,102h2v2h-2z M334,102h2v2h-2z M348,102h2v2h-2z M352,102h8v2h-8z M362,102h4v2h-4z M220,104h4v2h-4z M238,104h4v2h-4z M336,104h2v2h-2z M344,104h4v2h-4z M356,104h2v2h-2z M362,104h2v2h-2z M366,104h2v2h-2z M222,106h2v2h-2z M238,106h2v2h-2z M336,106h2v2h-2z M368,106h2v2h-2z M220,108h2v2h-2z M340,108h2v2h-2z M344,108h2v2h-2z M360,108h2v2h-2z M222,110h2v2h-2z M342,110h2v2h-2z M360,110h2v2h-2z M222,112h4v2h-4z M226,114h4v2h-4z M360,114h4v2h-4z M220,116h2v2h-2z M358,116h2v2h-2z M362,116h2v2h-2z M208,118h2v2h-2z M222,118h2v2h-2z M358,118h2v2h-2z M204,120h2v2h-2z M352,120h4v2h-4z M200,122h2v2h-2z M204,122h2v2h-2z M208,122h2v2h-2z M218,122h2v2h-2z M202,124h2v2h-2z M206,124h2v2h-2z M210,124h2v2h-2z M214,124h4v2h-4z M356,124h2v2h-2z M202,126h2v2h-2z M216,126h2v2h-2z M362,126h2v2h-2z M206,128h2v2h-2z M356,128h2v2h-2z M360,128h4v2h-4z M206,132h4v2h-4z M208,134h4v2h-4z M360,134h2v2h-2z M114,136h2v2h-2z M202,136h2v2h-2z M208,136h2v2h-2z M368,136h2v2h-2z M376,136h4v2h-4z M114,138h2v2h-2z M200,138h4v2h-4z M206,138h2v2h-2z M362,138h6v2h-6z M370,138h2v2h-2z M114,140h2v2h-2z M150,140h2v2h-2z M196,140h4v2h-4z M202,140h2v2h-2z M206,140h2v2h-2z M362,140h2v2h-2z M370,140h2v2h-2z M148,142h2v2h-2z M198,142h2v2h-2z M372,142h6v2h-6z M148,144h2v2h-2z M198,144h4v2h-4z M372,144h6v2h-6z M124,146h2v2h-2z M148,146h2v2h-2z M152,146h2v2h-2z M166,146h2v2h-2z M122,148h4v2h-4z M152,148h4v2h-4z M164,148h4v2h-4z M198,148h2v2h-2z M364,148h2v2h-2z M370,148h2v2h-2z M124,150h8v2h-8z M152,150h2v2h-2z M164,150h2v2h-2z M198,150h4v2h-4z M124,152h2v2h-2z M128,152h10v2h-10z M148,152h6v2h-6z M156,152h4v2h-4z M164,152h2v2h-2z M194,152h2v2h-2z M134,154h4v2h-4z M142,154h2v2h-2z M148,154h4v2h-4z M166,154h4v2h-4z M196,154h4v2h-4z M368,154h2v2h-2z M128,156h2v2h-2z M138,156h2v2h-2z M148,156h4v2h-4z M158,156h6v2h-6z M174,156h2v2h-2z M198,156h2v2h-2z M126,158h4v2h-4z M138,158h6v2h-6z M162,158h2v2h-2z M170,158h6v2h-6z M366,158h2v2h-2z M124,160h4v2h-4z M138,160h2v2h-2z M172,160h2v2h-2z M176,160h2v2h-2z M194,160h2v2h-2z M368,160h4v2h-4z M126,162h2v2h-2z M176,162h2v2h-2z M196,162h2v2h-2z M370,162h2v2h-2z M128,164h2v2h-2z M178,164h4v2h-4z M194,164h2v2h-2z M372,164h2v2h-2z M128,166h2v2h-2z M182,166h2v2h-2z M370,166h6v2h-6z M182,168h2v2h-2z M112,170h2v2h-2z M116,170h2v2h-2z M120,170h6v2h-6z M116,172h2v2h-2z M186,172h2v2h-2z M118,174h2v2h-2z M192,174h2v2h-2z M90,176h2v2h-2z M118,176h2v2h-2z M188,176h6v2h-6z M116,178h4v2h-4z M190,178h4v2h-4z M368,178h2v2h-2z M92,180h2v2h-2z M114,180h4v2h-4z M190,180h4v2h-4z M94,182h2v2h-2z M104,182h2v2h-2z M116,182h2v2h-2z M190,182h4v2h-4z M364,182h2v2h-2z M96,184h2v2h-2z M104,184h2v2h-2z M192,184h2v2h-2z M362,184h2v2h-2z M366,184h2v2h-2z M96,186h2v2h-2z M100,186h2v2h-2z M104,186h2v2h-2z M114,186h2v2h-2z M192,186h2v2h-2z M96,188h10v2h-10z M110,188h6v2h-6z M362,188h2v2h-2z M98,190h2v2h-2z M112,190h4v2h-4z M362,190h2v2h-2z M96,192h4v2h-4z M114,192h2v2h-2z M358,192h4v2h-4z M96,194h2v2h-2z M80,196h2v2h-2z M94,196h4v2h-4z M36,198h2v2h-2z M80,198h2v2h-2z M92,198h2v2h-2z M348,200h2v2h-2z M36,202h2v2h-2z M80,202h2v2h-2z M92,202h2v2h-2z M80,204h2v2h-2z M94,204h4v2h-4z M96,206h2v2h-2z M96,208h4v2h-4z M114,208h2v2h-2z M358,208h4v2h-4z M98,210h2v2h-2z M112,210h4v2h-4z M362,210h2v2h-2z M96,212h10v2h-10z M110,212h6v2h-6z M362,212h2v2h-2z M96,214h2v2h-2z M100,214h2v2h-2z M104,214h2v2h-2z M114,214h2v2h-2z M192,214h2v2h-2z M96,216h2v2h-2z M104,216h2v2h-2z M192,216h2v2h-2z M362,216h2v2h-2z M366,216h2v2h-2z M94,218h2v2h-2z M104,218h2v2h-2z M116,218h2v2h-2z M190,218h4v2h-4z M364,218h2v2h-2z M92,220h2v2h-2z M114,220h4v2h-4z M190,220h4v2h-4z M116,222h4v2h-4z M190,222h4v2h-4z M368,222h2v2h-2z M90,224h2v2h-2z M118,224h2v2h-2z M188,224h6v2h-6z M118,226h2v2h-2z M192,226h2v2h-2z M116,228h2v2h-2z M186,228h2v2h-2z M112,230h2v2h-2z M116,230h2v2h-2z M120,230h6v2h-6z M182,232h2v2h-2z M128,234h2v2h-2z M182,234h2v2h-2z M370,234h6v2h-6z M128,236h2v2h-2z M178,236h4v2h-4z M194,236h2v2h-2z M372,236h2v2h-2z M126,238h2v2h-2z M176,238h2v2h-2z M196,238h2v2h-2z M370,238h2v2h-2z M124,240h4v2h-4z M138,240h2v2h-2z M172,240h2v2h-2z M176,240h2v2h-2z M194,240h2v2h-2z M368,240h4v2h-4z M126,242h4v2h-4z M138,242h6v2h-6z M162,242h2v2h-2z M170,242h6v2h-6z M366,242h2v2h-2z M128,244h2v2h-2z M138,244h2v2h-2z M148,244h4v2h-4z M158,244h6v2h-6z M174,244h2v2h-2z M198,244h2v2h-2z M134,246h4v2h-4z M142,246h2v2h-2z M148,246h4v2h-4z M166,246h4v2h-4z M196,246h4v2h-4z M368,246h2v2h-2z M124,248h2v2h-2z M128,248h10v2h-10z M148,248h6v2h-6z M156,248h4v2h-4z M164,248h2v2h-2z M194,248h2v2h-2z M124,250h8v2h-8z M152,250h2v2h-2z M164,250h2v2h-2z M198,250h4v2h-4z M122,252h4v2h-4z M152,252h4v2h-4z M164,252h4v2h-4z M198,252h2v2h-2z M364,252h2v2h-2z M370,252h2v2h-2z M124,254h2v2h-2z M148,254h2v2h-2z M152,254h2v2h-2z M166,254h2v2h-2z M148,256h2v2h-2z M198,256h4v2h-4z M372,256h6v2h-6z M148,258h2v2h-2z M198,258h2v2h-2z M372,258h6v2h-6z M114,260h2v2h-2z M150,260h2v2h-2z M196,260h4v2h-4z M202,260h2v2h-2z M206,260h2v2h-2z M362,260h2v2h-2z M370,260h2v2h-2z M114,262h2v2h-2z M200,262h4v2h-4z M206,262h2v2h-2z M362,262h6v2h-6z M370,262h2v2h-2z M114,264h2v2h-2z M202,264h2v2h-2z M208,264h2v2h-2z M368,264h2v2h-2z M376,264h4v2h-4z M208,266h4v2h-4z M360,266h2v2h-2z M206,268h4v2h-4z M206,272h2v2h-2z M356,272h2v2h-2z M360,272h4v2h-4z M202,274h2v2h-2z M216,274h2v2h-2z M362,274h2v2h-2z M202,276h2v2h-2z M206,276h2v2h-2z M210,276h2v2h-2z M214,276h4v2h-4z M356,276h2v2h-2z M200,278h2v2h-2z M204,278h2v2h-2z M208,278h2v2h-2z M218,278h2v2h-2z M204,280h2v2h-2z M352,280h4v2h-4z M208,282h2v2h-2z M222,282h2v2h-2z M358,282h2v2h-2z M220,284h2v2h-2z M358,284h2v2h-2z M362,284h2v2h-2z M226,286h4v2h-4z M360,286h4v2h-4z M222,288h4v2h-4z M222,290h2v2h-2z M342,290h2v2h-2z M360,290h2v2h-2z M220,292h2v2h-2z M340,292h2v2h-2z M344,292h2v2h-2z M360,292h2v2h-2z M222,294h2v2h-2z M238,294h2v2h-2z M336,294h2v2h-2z M368,294h2v2h-2z M220,296h4v2h-4z M238,296h4v2h-4z M336,296h2v2h-2z M344,296h4v2h-4z M356,296h2v2h-2z M362,296h2v2h-2z M366,296h2v2h-2z M222,298h4v2h-4z M242,298h2v2h-2z M330,298h2v2h-2z M334,298h2v2h-2z M348,298h2v2h-2z M352,298h8v2h-8z M362,298h4v2h-4z M242,300h2v2h-2z M246,300h2v2h-2z M250,300h2v2h-2z M330,300h2v2h-2z M356,300h2v2h-2z M364,300h6v2h-6z M212,302h6v2h-6z M222,302h2v2h-2z M350,302h2v2h-2z M362,302h4v2h-4z M214,304h8v2h-8z M224,304h4v2h-4z M234,304h4v2h-4z M256,304h2v2h-2z M322,304h2v2h-2z M330,304h2v2h-2z M224,306h2v2h-2z M232,306h2v2h-2z M248,306h2v2h-2z M256,306h4v2h-4z M326,306h2v2h-2z M330,306h2v2h-2z M334,306h2v2h-2z M218,308h2v2h-2z M222,308h4v2h-4z M248,308h4v2h-4z M254,308h2v2h-2z M264,308h4v2h-4z M270,308h2v2h-2z M302,308h4v2h-4z M308,308h2v2h-2z M312,308h4v2h-4z M328,308h2v2h-2z M362,308h2v2h-2z M216,310h2v2h-2z M224,310h2v2h-2z M248,310h2v2h-2z M252,310h2v2h-2z M264,310h2v2h-2z M272,310h10v2h-10z M298,310h6v2h-6z M310,310h2v2h-2z M316,310h2v2h-2z M328,310h2v2h-2z M214,312h2v2h-2z M224,312h6v2h-6z M250,312h2v2h-2z M276,312h2v2h-2z M316,312h2v2h-2z M328,312h2v2h-2z M248,314h2v2h-2z M274,314h2v2h-2z M228,316h2v2h-2z M304,316h2v2h-2z M272,318h2v2h-2z M306,318h2v2h-2z M270,320h2v2h-2z M304,320h2v2h-2z M272,322h2v2h-2z M270,324h2v2h-2z M306,324h4v2h-4z M266,326h2v2h-2z M304,326h8v2h-8z M270,328h4v2h-4z M304,328h2v2h-2z M272,330h4v2h-4z M306,330h2v2h-2z M272,332h2v2h-2z M306,332h4v2h-4z M272,334h2v2h-2z M304,334h4v2h-4z M270,336h2v2h-2z M300,336h6v2h-6z M270,338h2v2h-2z M274,338h6v2h-6z M298,338h4v2h-4z M308,338h2v2h-2z M264,340h4v2h-4z M282,340h4v2h-4z M294,340h4v2h-4z M300,340h2v2h-2z M270,342h4v2h-4z M280,342h2v2h-2z M284,342h4v2h-4z M296,342h2v2h-2z M308,342h2v2h-2z M272,344h2v2h-2z M284,344h2v2h-2z M296,344h2v2h-2z M270,346h2v2h-2z M286,346h2v2h-2z M296,346h2v2h-2z M294,348h2v2h-2z M282,350h2v2h-2z M288,350h6v2h-6z M284,352h2v2h-2z M292,352h2v2h-2z M290,354h4v2h-4z M292,356h2v2h-2z M294,360h2v2h-2z M290,362h2v2h-2z M296,362h2v2h-2z M288,364h2v2h-2z M304,364h2v2h-2z M288,370h2v2h-2z M282,372h2v2h-2z M282,382h2v2h-2z " fill="#00ffff" fill-opacity="0.6" stroke="none" filter="url(#glow)" /><path d="M292,42h2v2h-2z M290,48h2v2h-2z M298,50h2v2h-2z M288,52h2v2h-2z M292,52h2v2h-2z M294,54h2v2h-2z M286,56h2v2h-2z M294,56h2v2h-2z M278,58h2v2h-2z M294,58h2v2h-2z M270,60h2v2h-2z M280,60h2v2h-2z M288,60h2v2h-2z M308,60h2v2h-2z M272,62h2v2h-2z M272,64h4v2h-4z M308,64h2v2h-2z M314,64h2v2h-2z M302,66h2v2h-2z M274,68h2v2h-2z M268,70h2v2h-2z M304,70h2v2h-2z M268,72h2v2h-2z M270,74h2v2h-2z M272,76h2v2h-2z M270,78h2v2h-2z M304,78h4v2h-4z M272,80h2v2h-2z M274,82h2v2h-2z M304,82h2v2h-2z M302,86h2v2h-2z M248,88h2v2h-2z M252,88h2v2h-2z M278,88h2v2h-2z M250,90h2v2h-2z M262,90h2v2h-2z M268,90h2v2h-2z M326,90h2v2h-2z M330,90h4v2h-4z M220,92h2v2h-2z M252,92h2v2h-2z M260,92h2v2h-2z M300,92h2v2h-2z M316,92h2v2h-2z M330,92h2v2h-2z M250,94h2v2h-2z M254,94h2v2h-2z M260,94h2v2h-2z M314,94h2v2h-2z M318,94h2v2h-2z M222,96h2v2h-2z M228,96h2v2h-2z M232,96h2v2h-2z M248,96h2v2h-2z M258,96h2v2h-2z M324,96h2v2h-2z M230,98h2v2h-2z M234,98h2v2h-2z M248,98h2v2h-2z M330,98h2v2h-2z M348,98h2v2h-2z M222,100h2v2h-2z M234,100h4v2h-4z M244,100h2v2h-2z M350,100h4v2h-4z M332,102h2v2h-2z M336,102h2v2h-2z M348,104h2v2h-2z M354,104h2v2h-2z M358,104h4v2h-4z M344,106h2v2h-2z M360,106h2v2h-2z M362,108h2v2h-2z M342,112h2v2h-2z M358,112h2v2h-2z M344,114h2v2h-2z M360,116h2v2h-2z M210,118h2v2h-2z M220,118h2v2h-2z M208,120h2v2h-2z M218,120h2v2h-2z M206,122h2v2h-2z M212,122h2v2h-2z M352,122h2v2h-2z M204,124h2v2h-2z M212,124h2v2h-2z M204,126h4v2h-4z M354,126h2v2h-2z M204,128h2v2h-2z M208,128h2v2h-2z M216,128h2v2h-2z M206,130h2v2h-2z M360,130h2v2h-2z M360,132h2v2h-2z M368,138h2v2h-2z M376,138h2v2h-2z M148,140h2v2h-2z M200,140h2v2h-2z M364,140h2v2h-2z M196,142h2v2h-2z M200,142h2v2h-2z M362,142h2v2h-2z M156,146h2v2h-2z M202,146h2v2h-2z M370,146h2v2h-2z M156,148h2v2h-2z M202,148h2v2h-2z M368,148h2v2h-2z M154,150h4v2h-4z M364,150h2v2h-2z M166,152h2v2h-2z M196,152h4v2h-4z M128,154h2v2h-2z M132,154h2v2h-2z M156,154h4v2h-4z M136,156h2v2h-2z M144,156h2v2h-2z M164,156h6v2h-6z M368,156h2v2h-2z M152,158h2v2h-2z M156,158h4v2h-4z M164,158h2v2h-2z M198,158h2v2h-2z M122,160h2v2h-2z M168,160h4v2h-4z M174,160h2v2h-2z M128,162h2v2h-2z M172,162h2v2h-2z M178,162h4v2h-4z M198,162h2v2h-2z M126,164h2v2h-2z M176,164h2v2h-2z M130,166h2v2h-2z M180,168h2v2h-2z M196,168h2v2h-2z M184,170h2v2h-2z M194,170h2v2h-2z M366,170h2v2h-2z M118,172h6v2h-6z M184,172h2v2h-2z M366,172h2v2h-2z M186,174h2v2h-2z M194,174h2v2h-2z M368,174h2v2h-2z M120,176h2v2h-2z M186,176h2v2h-2z M194,176h2v2h-2z M370,176h2v2h-2z M188,178h2v2h-2z M194,178h2v2h-2z M364,178h4v2h-4z M188,180h2v2h-2z M364,180h2v2h-2z M362,186h2v2h-2z M106,188h2v2h-2z M192,188h2v2h-2z M108,190h4v2h-4z M192,190h2v2h-2z M100,192h2v2h-2z M192,192h2v2h-2z M92,196h2v2h-2z M352,198h2v2h-2z M352,202h2v2h-2z M92,204h2v2h-2z M100,208h2v2h-2z M192,208h2v2h-2z M108,210h4v2h-4z M192,210h2v2h-2z M106,212h2v2h-2z M192,212h2v2h-2z M362,214h2v2h-2z M188,220h2v2h-2z M364,220h2v2h-2z M188,222h2v2h-2z M194,222h2v2h-2z M364,222h4v2h-4z M120,224h2v2h-2z M186,224h2v2h-2z M194,224h2v2h-2z M370,224h2v2h-2z M186,226h2v2h-2z M194,226h2v2h-2z M368,226h2v2h-2z M118,228h6v2h-6z M184,228h2v2h-2z M366,228h2v2h-2z M184,230h2v2h-2z M194,230h2v2h-2z M366,230h2v2h-2z M180,232h2v2h-2z M196,232h2v2h-2z M130,234h2v2h-2z M126,236h2v2h-2z M176,236h2v2h-2z M128,238h2v2h-2z M172,238h2v2h-2z M178,238h4v2h-4z M198,238h2v2h-2z M122,240h2v2h-2z M168,240h4v2h-4z M174,240h2v2h-2z M152,242h2v2h-2z M156,242h4v2h-4z M164,242h2v2h-2z M198,242h2v2h-2z M136,244h2v2h-2z M144,244h2v2h-2z M164,244h6v2h-6z M368,244h2v2h-2z M128,246h2v2h-2z M132,246h2v2h-2z M156,246h4v2h-4z M166,248h2v2h-2z M196,248h4v2h-4z M154,250h4v2h-4z M364,250h2v2h-2z M156,252h2v2h-2z M202,252h2v2h-2z M368,252h2v2h-2z M156,254h2v2h-2z M202,254h2v2h-2z M370,254h2v2h-2z M196,258h2v2h-2z M200,258h2v2h-2z M362,258h2v2h-2z M148,260h2v2h-2z M200,260h2v2h-2z M364,260h2v2h-2z M368,262h2v2h-2z M376,262h2v2h-2z M360,268h2v2h-2z M206,270h2v2h-2z M360,270h2v2h-2z M204,272h2v2h-2z M208,272h2v2h-2z M216,272h2v2h-2z M204,274h4v2h-4z M354,274h2v2h-2z M204,276h2v2h-2z M212,276h2v2h-2z M206,278h2v2h-2z M212,278h2v2h-2z M352,278h2v2h-2z M208,280h2v2h-2z M218,280h2v2h-2z M210,282h2v2h-2z M220,282h2v2h-2z M360,284h2v2h-2z M344,286h2v2h-2z M342,288h2v2h-2z M358,288h2v2h-2z M362,292h2v2h-2z M344,294h2v2h-2z M360,294h2v2h-2z M348,296h2v2h-2z M354,296h2v2h-2z M358,296h4v2h-4z M332,298h2v2h-2z M336,298h2v2h-2z M222,300h2v2h-2z M234,300h4v2h-4z M244,300h2v2h-2z M350,300h4v2h-4z M230,302h2v2h-2z M234,302h2v2h-2z M248,302h2v2h-2z M330,302h2v2h-2z M348,302h2v2h-2z M222,304h2v2h-2z M228,304h2v2h-2z M232,304h2v2h-2z M248,304h2v2h-2z M258,304h2v2h-2z M324,304h2v2h-2z M250,306h2v2h-2z M254,306h2v2h-2z M260,306h2v2h-2z M314,306h2v2h-2z M318,306h2v2h-2z M220,308h2v2h-2z M252,308h2v2h-2z M260,308h2v2h-2z M300,308h2v2h-2z M316,308h2v2h-2z M330,308h2v2h-2z M250,310h2v2h-2z M262,310h2v2h-2z M268,310h2v2h-2z M326,310h2v2h-2z M330,310h4v2h-4z M248,312h2v2h-2z M252,312h2v2h-2z M278,312h2v2h-2z M302,314h2v2h-2z M274,318h2v2h-2z M304,318h2v2h-2z M272,320h2v2h-2z M270,322h2v2h-2z M304,322h4v2h-4z M272,324h2v2h-2z M270,326h2v2h-2z M268,328h2v2h-2z M268,330h2v2h-2z M304,330h2v2h-2z M274,332h2v2h-2z M302,334h2v2h-2z M272,336h4v2h-4z M308,336h2v2h-2z M314,336h2v2h-2z M272,338h2v2h-2z M270,340h2v2h-2z M280,340h2v2h-2z M288,340h2v2h-2z M308,340h2v2h-2z M278,342h2v2h-2z M294,342h2v2h-2z M286,344h2v2h-2z M294,344h2v2h-2z M294,346h2v2h-2z M288,348h2v2h-2z M292,348h2v2h-2z M298,350h2v2h-2z M290,352h2v2h-2z M292,358h2v2h-2z " fill="#ffff00" fill-opacity="0.6" stroke="none" filter="url(#glow)" /><path d="M286,52h2v2h-2z M280,62h2v2h-2z M278,64h2v2h-2z M276,86h2v2h-2z M300,88h2v2h-2z M254,90h2v2h-2z M220,94h2v2h-2z M308,94h2v2h-2z M324,94h2v2h-2z M332,94h2v2h-2z M224,98h2v2h-2z M232,98h2v2h-2z M320,98h2v2h-2z M350,102h2v2h-2z M338,106h2v2h-2z M236,108h2v2h-2z M224,110h2v2h-2z M358,110h2v2h-2z M226,112h2v2h-2z M226,116h2v2h-2z M224,118h2v2h-2z M208,124h2v2h-2z M210,126h2v2h-2z M356,126h2v2h-2z M368,140h2v2h-2z M370,142h2v2h-2z M202,144h2v2h-2z M144,158h2v2h-2z M150,158h2v2h-2z M196,158h2v2h-2z M140,160h2v2h-2z M130,164h2v2h-2z M180,166h2v2h-2z M194,168h2v2h-2z M194,172h2v2h-2z M120,178h2v2h-2z M100,190h2v2h-2z M100,210h2v2h-2z M120,222h2v2h-2z M194,228h2v2h-2z M194,232h2v2h-2z M180,234h2v2h-2z M130,236h2v2h-2z M140,240h2v2h-2z M144,242h2v2h-2z M150,242h2v2h-2z M196,242h2v2h-2z M202,256h2v2h-2z M370,258h2v2h-2z M368,260h2v2h-2z M210,274h2v2h-2z M356,274h2v2h-2z M208,276h2v2h-2z M224,282h2v2h-2z M226,284h2v2h-2z M226,288h2v2h-2z M224,290h2v2h-2z M358,290h2v2h-2z M236,292h2v2h-2z M338,294h2v2h-2z M350,298h2v2h-2z M224,302h2v2h-2z M232,302h2v2h-2z M320,302h2v2h-2z M220,306h2v2h-2z M308,306h2v2h-2z M324,306h2v2h-2z M332,306h2v2h-2z M254,310h2v2h-2z M300,312h2v2h-2z M276,314h2v2h-2z M278,336h2v2h-2z M280,338h2v2h-2z M286,348h2v2h-2z " fill="#00ff00" fill-opacity="0.6" stroke="none" filter="url(#glow)" /></svg>